<?xml version="1.0" encoding="UTF-8" standalone="no"?>
<!-- Uploaded to: SVG Repo, www.svgrepo.com, Transformed by: SVG Repo Mixer Tools -->

<svg
   width="800"
   height="800"
   viewBox="0 0 24 24"
   fill="none"
   version="1.1"
   id="svg3"
   sodipodi:docname="folder-7.svg"
   inkscape:version="1.4 (86a8ad7, 2024-10-11)"
   xmlns:inkscape="http://www.inkscape.org/namespaces/inkscape"
   xmlns:sodipodi="http://sodipodi.sourceforge.net/DTD/sodipodi-0.dtd"
   xmlns="http://www.w3.org/2000/svg"
   xmlns:svg="http://www.w3.org/2000/svg">
  <defs
     id="defs3" />
  <sodipodi:namedview
     id="namedview3"
     pagecolor="#ffffff"
     bordercolor="#000000"
     borderopacity="0.25"
     inkscape:showpageshadow="2"
     inkscape:pageopacity="0.0"
     inkscape:pagecheckerboard="0"
     inkscape:deskcolor="#d1d1d1"
     inkscape:zoom="2.0718229"
     inkscape:cx="500.76675"
     inkscape:cy="405.92273"
     inkscape:window-width="2560"
     inkscape:window-height="1476"
     inkscape:window-x="-12"
     inkscape:window-y="224"
     inkscape:window-maximized="1"
     inkscape:current-layer="svg3" />
  <g
     id="SVGRepo_bgCarrier"
     stroke-width="0"
     transform="translate(2.2935154,-0.10238908)" />
  <g
     id="SVGRepo_tracerCarrier"
     stroke-linecap="round"
     stroke-linejoin="round"
     transform="translate(2.2935154,-0.10238908)" />
  <g
     id="SVGRepo_iconCarrier"
     style="opacity:1;stroke-width:0.99999;stroke-dasharray:none">
    <path
       d="M 2,6.94975 C 2,6.06722 2,5.62595 2.06935,5.25839 2.37464,3.64031 3.64031,2.37464 5.25839,2.06935 5.62595,2 6.06722,2 6.94975,2 7.33642,2 7.52976,2 7.71557,2.01738 8.51665,2.09229 9.27652,2.40704 9.89594,2.92051 10.0396,3.03961 10.1763,3.17633 10.4497,3.44975 L 11,4 c 0.8158,0.81578 1.2237,1.22367 1.7121,1.49543 0.2683,0.14928 0.553,0.26717 0.8483,0.35135 C 14.0979,6 14.6747,6 15.8284,6 h 0.3737 c 2.6324,0 3.9485,0 4.8041,0.76946 0.0787,0.07078 0.1536,0.14568 0.2243,0.22437 C 22,7.84935 22,9.16554 22,11.7979 V 14 c 0,3.7712 0,5.6569 -1.1716,6.8284 C 19.6569,22 17.7712,22 14,22 H 10 C 6.22876,22 4.34315,22 3.17157,20.8284 2,19.6569 2,17.7712 2,14 Z"
       fill="#001d3d"
       id="path1"
       style="stroke-width:0.99999;stroke-dasharray:none" />
    <path
       fill-rule="evenodd"
       clip-rule="evenodd"
       d="m 12.25,10 c 0,-0.41421 0.3358,-0.75 0.75,-0.75 h 5 c 0.4142,0 0.75,0.33579 0.75,0.75 0,0.4142 -0.3358,0.75 -0.75,0.75 h -5 c -0.4142,0 -0.75,-0.3358 -0.75,-0.75 z"
       fill="#ffffff"
       id="path2"
       style="stroke-width:0.99999;stroke-dasharray:none;fill:#d5af15;fill-opacity:1" />
    <path
       d="M 16.9856,3.02094 C 16.8321,3 16.6492,3 16.2835,3 H 12 l 0.3699,0.38312 c 0.666,0.68987 0.922,0.94739 1.2178,1.11784 0.1717,0.09894 0.3538,0.17708 0.5427,0.23287 0.3255,0.0961 0.6824,0.10155 1.6242,0.10155 h 0.3344 c 1.0024,-2e-5 1.8105,-3e-5 2.4499,0.08324 C 18.6984,4.93939 18.8521,4.96582 19,5 18.8144,3.96313 18.0043,3.15985 16.9856,3.02094 Z"
       fill="#001d3d"
       id="path3"
       style="stroke-width:0.99999;stroke-dasharray:none" />
  </g>
</svg>
